<?xml version="1.0" encoding="UTF-8" standalone="no"?>
<!-- Created with Inkscape (http://www.inkscape.org/) -->

<svg
   xmlns:dc="http://purl.org/dc/elements/1.1/"
   xmlns:cc="http://creativecommons.org/ns#"
   xmlns:rdf="http://www.w3.org/1999/02/22-rdf-syntax-ns#"
   xmlns:svg="http://www.w3.org/2000/svg"
   xmlns="http://www.w3.org/2000/svg"
   xmlns:sodipodi="http://sodipodi.sourceforge.net/DTD/sodipodi-0.dtd"
   xmlns:inkscape="http://www.inkscape.org/namespaces/inkscape"
   width="31.375744mm"
   height="7.1899128mm"
   viewBox="0 0 111.17389 25.476069"
   id="svg6645"
   version="1.1"
   inkscape:version="0.91 r13725"
   sodipodi:docname="footer-icons.svg">
  <defs
     id="defs6647" />
  <sodipodi:namedview
     id="base"
     pagecolor="#ffffff"
     bordercolor="#666666"
     borderopacity="1.0"
     inkscape:pageopacity="0.0"
     inkscape:pageshadow="2"
     inkscape:zoom="2.59"
     inkscape:cx="56.524621"
     inkscape:cy="35.329351"
     inkscape:document-units="px"
     inkscape:current-layer="layer1"
     showgrid="false"
     showguides="true"
     inkscape:guide-bbox="true"
     fit-margin-top="0"
     fit-margin-left="0"
     fit-margin-right="0"
     fit-margin-bottom="0"
     inkscape:window-width="1590"
     inkscape:window-height="807"
     inkscape:window-x="-13"
     inkscape:window-y="0"
     inkscape:window-maximized="0">
    <sodipodi:guide
       position="131.07843,-13.224074"
       orientation="0,1"
       id="guide7498" />
  </sodipodi:namedview>
  <metadata
     id="metadata6650">
    <rdf:RDF>
      <cc:Work
         rdf:about="">
        <dc:format>image/svg+xml</dc:format>
        <dc:type
           rdf:resource="http://purl.org/dc/dcmitype/StillImage" />
        <dc:title></dc:title>
      </cc:Work>
    </rdf:RDF>
  </metadata>
  <g
     inkscape:label="Layer 1"
     inkscape:groupmode="layer"
     id="layer1"
     transform="translate(-148.21443,-364.97229)">
    <g
       id="g7637"
       transform="matrix(0.04882803,0,0,0.05168807,248.35365,364.6072)"
       style="fill:#f7f6e4;fill-opacity:1">
      <g
         id="g7597"
         transform="matrix(1.0718096,0,0,1.0718096,-322.77817,-18.383334)"
         style="fill:#f7f6e4;fill-opacity:1">
        <path
           id="path7599"
           d="m 512.002,97.211 c -18.84,8.354 -39.082,14.001 -60.33,16.54 21.686,-13 38.342,-33.585 46.186,-58.115 -20.299,12.039 -42.777,20.78 -66.705,25.49 -19.16,-20.415 -46.461,-33.17 -76.674,-33.17 -58.011,0 -105.042,47.029 -105.042,105.039 0,8.233 0.929,16.25 2.72,23.939 -87.3,-4.382 -164.701,-46.2 -216.509,-109.753 -9.042,15.514 -14.223,33.558 -14.223,52.809 0,36.444 18.544,68.596 46.73,87.433 -17.219,-0.546 -33.416,-5.271 -47.577,-13.139 -0.01,0.438 -0.01,0.878 -0.01,1.321 0,50.894 36.209,93.348 84.261,103 -8.813,2.399 -18.094,3.687 -27.674,3.687 -6.769,0 -13.349,-0.66 -19.764,-1.888 13.368,41.73 52.16,72.104 98.126,72.949 -35.95,28.176 -81.243,44.967 -130.458,44.967 -8.479,0 -16.84,-0.496 -25.058,-1.471 46.486,29.807 101.701,47.197 161.021,47.197 193.211,0 298.868,-160.062 298.868,-298.872 0,-4.554 -0.104,-9.084 -0.305,-13.59 20.526,-14.809 38.335,-33.309 52.417,-54.373 z"
           inkscape:connector-curvature="0"
           style="fill:#f7f6e4;fill-opacity:1" />
      </g>
      <g
         id="g7601"
         style="fill:#f7f6e4;fill-opacity:1" />
      <g
         id="g7603"
         style="fill:#f7f6e4;fill-opacity:1" />
      <g
         id="g7605"
         style="fill:#f7f6e4;fill-opacity:1" />
      <g
         id="g7607"
         style="fill:#f7f6e4;fill-opacity:1" />
      <g
         id="g7609"
         style="fill:#f7f6e4;fill-opacity:1" />
      <g
         id="g7611"
         style="fill:#f7f6e4;fill-opacity:1" />
      <g
         id="g7613"
         style="fill:#f7f6e4;fill-opacity:1" />
      <g
         id="g7615"
         style="fill:#f7f6e4;fill-opacity:1" />
      <g
         id="g7617"
         style="fill:#f7f6e4;fill-opacity:1" />
      <g
         id="g7619"
         style="fill:#f7f6e4;fill-opacity:1" />
      <g
         id="g7621"
         style="fill:#f7f6e4;fill-opacity:1" />
      <g
         id="g7623"
         style="fill:#f7f6e4;fill-opacity:1" />
      <g
         id="g7625"
         style="fill:#f7f6e4;fill-opacity:1" />
      <g
         id="g7627"
         style="fill:#f7f6e4;fill-opacity:1" />
      <g
         id="g7629"
         style="fill:#f7f6e4;fill-opacity:1" />
    </g>
    <g
       id="g7698"
       transform="matrix(0.05431903,0,0,0.06113267,202.55214,362.05168)"
       style="fill:#f7f6e4;fill-opacity:1">
      <g
         id="g7657"
         style="fill:#f7f6e4;fill-opacity:1">
        <g
           id="video-youtube"
           style="fill:#f7f6e4;fill-opacity:1">
          <path
             id="path7660"
             d="M 459,61.2 C 443.7,56.1 349.35,51 255,51 160.65,51 66.3,56.1 51,61.2 10.2,73.95 0,163.2 0,255 c 0,91.8 10.2,181.05 51,193.8 15.3,5.1 109.65,10.2 204,10.2 94.35,0 188.7,-5.1 204,-10.2 40.8,-12.75 51,-102 51,-193.8 C 510,163.2 499.8,73.95 459,61.2 Z M 204,369.75 204,140.25 357,255 204,369.75 Z"
             inkscape:connector-curvature="0"
             style="fill:#f7f6e4;fill-opacity:1" />
        </g>
      </g>
      <g
         id="g7662"
         style="fill:#f7f6e4;fill-opacity:1" />
      <g
         id="g7664"
         style="fill:#f7f6e4;fill-opacity:1" />
      <g
         id="g7666"
         style="fill:#f7f6e4;fill-opacity:1" />
      <g
         id="g7668"
         style="fill:#f7f6e4;fill-opacity:1" />
      <g
         id="g7670"
         style="fill:#f7f6e4;fill-opacity:1" />
      <g
         id="g7672"
         style="fill:#f7f6e4;fill-opacity:1" />
      <g
         id="g7674"
         style="fill:#f7f6e4;fill-opacity:1" />
      <g
         id="g7676"
         style="fill:#f7f6e4;fill-opacity:1" />
      <g
         id="g7678"
         style="fill:#f7f6e4;fill-opacity:1" />
      <g
         id="g7680"
         style="fill:#f7f6e4;fill-opacity:1" />
      <g
         id="g7682"
         style="fill:#f7f6e4;fill-opacity:1" />
      <g
         id="g7684"
         style="fill:#f7f6e4;fill-opacity:1" />
      <g
         id="g7686"
         style="fill:#f7f6e4;fill-opacity:1" />
      <g
         id="g7688"
         style="fill:#f7f6e4;fill-opacity:1" />
      <g
         id="g7690"
         style="fill:#f7f6e4;fill-opacity:1" />
    </g>
    <g
       id="g7793"
       transform="matrix(0.05139898,0,0,0.05139898,174.88303,365.44836)"
       style="fill:#f7f6e4;fill-opacity:1">
      <g
         id="g7719"
         style="fill:#f7f6e4;fill-opacity:1">
        <g
           id="g7721"
           style="fill:#f7f6e4;fill-opacity:1">
          <g
             id="g7723"
             style="fill:#f7f6e4;fill-opacity:1">
            <path
               id="path7725"
               d="M 395.193,0 91.198,0 C 40.826,0 0,40.826 0,91.198 l 0,303.995 c 0,50.372 40.826,91.198 91.198,91.198 l 303.995,0 c 50.372,0 91.198,-40.827 91.198,-91.198 l 0,-303.995 C 486.392,40.826 445.565,0 395.193,0 Z m -89.131,243.165 -39.854,0.03 -0.03,145.917 -54.689,0 0,-145.916 -36.479,0 0,-50.281 36.479,-0.03 -0.061,-29.609 c 0,-41.039 11.126,-65.997 59.431,-65.997 l 40.249,0 0,50.311 -25.171,0 c -18.817,0 -19.729,7.022 -19.729,20.124 l -0.061,25.171 45.234,0 -5.319,50.28 z"
               inkscape:connector-curvature="0"
               style="fill:#f7f6e4;fill-opacity:1" />
          </g>
        </g>
        <g
           id="g7727"
           style="fill:#f7f6e4;fill-opacity:1" />
        <g
           id="g7729"
           style="fill:#f7f6e4;fill-opacity:1" />
        <g
           id="g7731"
           style="fill:#f7f6e4;fill-opacity:1" />
        <g
           id="g7733"
           style="fill:#f7f6e4;fill-opacity:1" />
        <g
           id="g7735"
           style="fill:#f7f6e4;fill-opacity:1" />
        <g
           id="g7737"
           style="fill:#f7f6e4;fill-opacity:1" />
        <g
           id="g7739"
           style="fill:#f7f6e4;fill-opacity:1" />
        <g
           id="g7741"
           style="fill:#f7f6e4;fill-opacity:1" />
        <g
           id="g7743"
           style="fill:#f7f6e4;fill-opacity:1" />
        <g
           id="g7745"
           style="fill:#f7f6e4;fill-opacity:1" />
        <g
           id="g7747"
           style="fill:#f7f6e4;fill-opacity:1" />
        <g
           id="g7749"
           style="fill:#f7f6e4;fill-opacity:1" />
        <g
           id="g7751"
           style="fill:#f7f6e4;fill-opacity:1" />
        <g
           id="g7753"
           style="fill:#f7f6e4;fill-opacity:1" />
        <g
           id="g7755"
           style="fill:#f7f6e4;fill-opacity:1" />
      </g>
      <g
         id="g7757"
         style="fill:#f7f6e4;fill-opacity:1" />
      <g
         id="g7759"
         style="fill:#f7f6e4;fill-opacity:1" />
      <g
         id="g7761"
         style="fill:#f7f6e4;fill-opacity:1" />
      <g
         id="g7763"
         style="fill:#f7f6e4;fill-opacity:1" />
      <g
         id="g7765"
         style="fill:#f7f6e4;fill-opacity:1" />
      <g
         id="g7767"
         style="fill:#f7f6e4;fill-opacity:1" />
      <g
         id="g7769"
         style="fill:#f7f6e4;fill-opacity:1" />
      <g
         id="g7771"
         style="fill:#f7f6e4;fill-opacity:1" />
      <g
         id="g7773"
         style="fill:#f7f6e4;fill-opacity:1" />
      <g
         id="g7775"
         style="fill:#f7f6e4;fill-opacity:1" />
      <g
         id="g7777"
         style="fill:#f7f6e4;fill-opacity:1" />
      <g
         id="g7779"
         style="fill:#f7f6e4;fill-opacity:1" />
      <g
         id="g7781"
         style="fill:#f7f6e4;fill-opacity:1" />
      <g
         id="g7783"
         style="fill:#f7f6e4;fill-opacity:1" />
      <g
         id="g7785"
         style="fill:#f7f6e4;fill-opacity:1" />
    </g>
    <g
       id="g7878"
       transform="matrix(0.96153852,0,0,0.96153852,148.21442,364.97229)"
       style="fill:#f7f6e4;fill-opacity:1">
      <g
         id="g7830"
         style="fill:#f7f6e4;fill-opacity:1">
        <path
           id="path7832"
           d="M 20,7 C 19.449,7 19,6.551 19,6 l 0,-2 c 0,-0.551 0.449,-1 1,-1 l 2,0 c 0.551,0 1,0.449 1,1 l 0,2 c 0,0.551 -0.449,1 -1,1 l -2,0 z"
           inkscape:connector-curvature="0"
           style="fill:#f7f6e4;fill-opacity:1" />
        <path
           id="path7834"
           d="m 13,9.188 c -0.726,0 -1.396,0.213 -1.973,0.563 0.18,-0.056 0.367,-0.093 0.564,-0.093 1.068,0 1.933,0.865 1.933,1.934 0,1.066 -0.865,1.933 -1.933,1.933 -1.068,0 -1.933,-0.866 -1.933,-1.933 0,-0.199 0.039,-0.386 0.094,-0.565 C 9.4,11.604 9.188,12.274 9.188,13 c 0,2.107 1.705,3.813 3.813,3.813 2.105,0 3.813,-1.705 3.813,-3.813 0,-2.108 -1.709,-3.812 -3.814,-3.812 z"
           inkscape:connector-curvature="0"
           style="fill:#f7f6e4;fill-opacity:1" />
        <g
           id="g7836"
           style="fill:#f7f6e4;fill-opacity:1">
          <path
             id="path7838"
             d="m 13,7 c 3.313,0 6,2.686 6,6 0,3.314 -2.688,6 -6,6 C 9.687,19 7,16.314 7,13 7,9.686 9.687,7 13,7 m 0,-2 c -4.411,0 -8,3.589 -8,8 0,4.411 3.589,8 8,8 4.411,0 8,-3.589 8,-8 0,-4.411 -3.589,-8 -8,-8 l 0,0 z"
             inkscape:connector-curvature="0"
             style="fill:#f7f6e4;fill-opacity:1" />
        </g>
        <path
           id="path7840"
           d="M 21.125,0 4.875,0 C 2.182,0 0,2.182 0,4.875 l 0,16.25 C 0,23.818 2.182,26 4.875,26 l 16.25,0 C 23.818,26 26,23.818 26,21.125 L 26,4.875 C 26,2.182 23.818,0 21.125,0 Z M 24,9 17.463,9 C 18.416,10.063 19,11.461 19,13 19,16.314 16.312,19 13,19 9.687,19 7,16.314 7,13 7,11.461 7.584,10.062 8.537,9 L 2,9 2,4.875 C 2,3.29 3.29,2 4.875,2 l 16.25,0 C 22.711,2 24,3.29 24,4.875 L 24,9 Z"
           inkscape:connector-curvature="0"
           style="fill:#f7f6e4;fill-opacity:1" />
      </g>
      <g
         id="g7842"
         style="fill:#f7f6e4;fill-opacity:1" />
      <g
         id="g7844"
         style="fill:#f7f6e4;fill-opacity:1" />
      <g
         id="g7846"
         style="fill:#f7f6e4;fill-opacity:1" />
      <g
         id="g7848"
         style="fill:#f7f6e4;fill-opacity:1" />
      <g
         id="g7850"
         style="fill:#f7f6e4;fill-opacity:1" />
      <g
         id="g7852"
         style="fill:#f7f6e4;fill-opacity:1" />
      <g
         id="g7854"
         style="fill:#f7f6e4;fill-opacity:1" />
      <g
         id="g7856"
         style="fill:#f7f6e4;fill-opacity:1" />
      <g
         id="g7858"
         style="fill:#f7f6e4;fill-opacity:1" />
      <g
         id="g7860"
         style="fill:#f7f6e4;fill-opacity:1" />
      <g
         id="g7862"
         style="fill:#f7f6e4;fill-opacity:1" />
      <g
         id="g7864"
         style="fill:#f7f6e4;fill-opacity:1" />
      <g
         id="g7866"
         style="fill:#f7f6e4;fill-opacity:1" />
      <g
         id="g7868"
         style="fill:#f7f6e4;fill-opacity:1" />
      <g
         id="g7870"
         style="fill:#f7f6e4;fill-opacity:1" />
    </g>
  </g>
</svg>
