<?xml version="1.0" encoding="UTF-8" standalone="no"?>
<!-- Created with Inkscape (http://www.inkscape.org/) -->

<svg
   xmlns:dc="http://purl.org/dc/elements/1.1/"
   xmlns:cc="http://creativecommons.org/ns#"
   xmlns:rdf="http://www.w3.org/1999/02/22-rdf-syntax-ns#"
   xmlns:svg="http://www.w3.org/2000/svg"
   xmlns="http://www.w3.org/2000/svg"
   xmlns:sodipodi="http://sodipodi.sourceforge.net/DTD/sodipodi-0.dtd"
   xmlns:inkscape="http://www.inkscape.org/namespaces/inkscape"
   width="68.629601mm"
   height="98.777779mm"
   viewBox="0 0 243.17575 350"
   id="svg2"
   version="1.1"
   inkscape:version="0.91 r13725"
   sodipodi:docname="placeholder.svg">
  <defs
     id="defs4" />
  <sodipodi:namedview
     id="base"
     pagecolor="#ffffff"
     bordercolor="#666666"
     borderopacity="1.0"
     inkscape:pageopacity="0.0"
     inkscape:pageshadow="2"
     inkscape:zoom="0.57982756"
     inkscape:cx="27.922164"
     inkscape:cy="172.9834"
     inkscape:document-units="px"
     inkscape:current-layer="layer1"
     showgrid="false"
     fit-margin-top="0"
     fit-margin-left="0"
     fit-margin-right="0"
     fit-margin-bottom="0"
     inkscape:window-width="1600"
     inkscape:window-height="837"
     inkscape:window-x="-8"
     inkscape:window-y="-8"
     inkscape:window-maximized="1" />
  <metadata
     id="metadata7">
    <rdf:RDF>
      <cc:Work
         rdf:about="">
        <dc:format>image/svg+xml</dc:format>
        <dc:type
           rdf:resource="http://purl.org/dc/dcmitype/StillImage" />
        <dc:title></dc:title>
      </cc:Work>
    </rdf:RDF>
  </metadata>
  <g
     inkscape:groupmode="layer"
     id="layer2"
     inkscape:label="Layer 2"
     style="display:inline"
     transform="translate(-250.45937,-133.12338)" />
  <g
     inkscape:label="Layer 1"
     inkscape:groupmode="layer"
     id="layer1"
     style="display:inline"
     transform="translate(-250.45937,-133.12338)">
    <g
       id="g4162">
      <rect
         y="133.12338"
         x="250.45937"
         height="350"
         width="243.17575"
         id="rect4159"
         style="display:inline;opacity:1;fill:#e3a478;fill-opacity:1;fill-rule:nonzero;stroke:none;stroke-width:1;stroke-miterlimit:4;stroke-dasharray:none;stroke-opacity:0.98013246" />
      <g
         transform="matrix(0.88786817,0,0,0.88786817,334.54671,266.22047)"
         id="g4138">
        <path
           style="fill:#745946"
           inkscape:connector-curvature="0"
           d="M 67.715,12.396 C 67.696,12.08 67.523,11.818 67.28,11.648 L 61.286,0.525 C 61.112,0.202 60.774,0 60.406,0 L 17.232,0 c -0.325,0 -0.629,0.16 -0.816,0.425 -0.125,0.107 -0.234,0.234 -0.297,0.399 l -3.383,8.974 c -0.114,0.302 -0.075,0.641 0.105,0.91 0.18,0.269 0.479,0.434 0.802,0.442 l 6.496,0.183 0.537,1.393 -2.518,64.094 c -0.011,0.262 0.082,0.517 0.259,0.711 l 6.005,6.613 c 0.189,0.209 0.459,0.328 0.74,0.328 0.007,0 0.013,0 0.02,0 l 45.639,-0.881 c 0.271,-0.005 0.529,-0.121 0.715,-0.321 0.185,-0.2 0.279,-0.466 0.264,-0.737 L 67.715,12.396 Z M 59.809,2 l 5.095,9.455 -42.573,0 L 18.689,2 59.809,2 Z M 15.102,9.19 17.185,3.662 19.361,9.309 15.102,9.19 Z m 7.076,16.235 2.079,55.563 -4.085,-4.499 2.006,-51.064 z m 4.135,57.024 -2.574,-68.798 42.046,0 3.957,67.96 -43.429,0.838 z"
           id="path4140" />
        <path
           style="fill:#745946"
           inkscape:connector-curvature="0"
           d="m 52.652,39.019 c -0.82,9.165 -10.473,5.267 -9.937,13 l 0.091,0.407 c 2.998,2.075 7.548,0.75 10.196,-2.979 2.566,-3.639 2.422,-8.238 -0.35,-10.428 z"
           id="path4142" />
        <path
           style="fill:#745946"
           inkscape:connector-curvature="0"
           d="m 50.68,38.457 -0.065,-0.434 c -2.996,-2.072 -7.547,-0.746 -10.195,2.98 -2.567,3.637 -2.421,8.238 0.352,10.427 -0.155,-8.491 9.486,-5.218 9.908,-12.973 z"
           id="path4144" />
      </g>
    </g>
  </g>
</svg>
