<?xml version="1.0" encoding="UTF-8" standalone="no"?>
<!-- Created with Inkscape (http://www.inkscape.org/) -->

<svg
   xmlns:dc="http://purl.org/dc/elements/1.1/"
   xmlns:cc="http://creativecommons.org/ns#"
   xmlns:rdf="http://www.w3.org/1999/02/22-rdf-syntax-ns#"
   xmlns:svg="http://www.w3.org/2000/svg"
   xmlns="http://www.w3.org/2000/svg"
   xmlns:sodipodi="http://sodipodi.sourceforge.net/DTD/sodipodi-0.dtd"
   xmlns:inkscape="http://www.inkscape.org/namespaces/inkscape"
   width="61.004261"
   height="26"
   viewBox="0 0 61.004263 26"
   id="svg2"
   version="1.1"
   inkscape:version="0.91 r13725"
   sodipodi:docname="small-logo.svg">
  <defs
     id="defs4">
    <inkscape:path-effect
       effect="spiro"
       id="path-effect4455"
       is_visible="true" />
    <inkscape:path-effect
       effect="spiro"
       id="path-effect4443"
       is_visible="true" />
  </defs>
  <sodipodi:namedview
     id="base"
     pagecolor="#ffffff"
     bordercolor="#666666"
     borderopacity="1.0"
     inkscape:pageopacity="0.0"
     inkscape:pageshadow="2"
     inkscape:zoom="0.47"
     inkscape:cx="-356.44075"
     inkscape:cy="-145.23184"
     inkscape:document-units="px"
     inkscape:current-layer="svg2"
     showgrid="false"
     inkscape:window-width="1600"
     inkscape:window-height="837"
     inkscape:window-x="-8"
     inkscape:window-y="-8"
     inkscape:window-maximized="1"
     showguides="true"
     inkscape:guide-bbox="true"
     units="px"
     fit-margin-top="0"
     fit-margin-left="0"
     fit-margin-right="0"
     fit-margin-bottom="0">
    <inkscape:grid
       type="xygrid"
       id="grid4746"
       originx="-980.11235"
       originy="-5119.5848" />
  </sodipodi:namedview>
  <metadata
     id="metadata7">
    <rdf:RDF>
      <cc:Work
         rdf:about="">
        <dc:format>image/svg+xml</dc:format>
        <dc:type
           rdf:resource="http://purl.org/dc/dcmitype/StillImage" />
        <dc:title></dc:title>
      </cc:Work>
    </rdf:RDF>
  </metadata>
  <g
     inkscape:groupmode="layer"
     id="layer2"
     inkscape:label="Layer 2"
     style="display:inline"
     transform="translate(-430.07448,-486.16482)" />
  <flowRoot
     xml:space="preserve"
     id="flowRoot4140"
     style="font-style:normal;font-variant:normal;font-weight:normal;font-stretch:normal;font-size:35px;line-height:125%;font-family:'Fira Sans';-inkscape-font-specification:'Fira Sans, Normal';text-align:center;letter-spacing:10px;word-spacing:-0.01px;writing-mode:lr-tb;text-anchor:middle;fill:#000000;fill-opacity:1;stroke:none;stroke-width:1px;stroke-linecap:butt;stroke-linejoin:miter;stroke-opacity:1"
     transform="translate(-430.07448,-486.16482)"><flowRegion
       id="flowRegion4142"><rect
         id="rect4144"
         width="672.34045"
         height="480.85107"
         x="25.531916"
         y="182.14944" /></flowRegion><flowPara
       id="flowPara4146" /></flowRoot>  <text
     xml:space="preserve"
     style="font-style:normal;font-variant:normal;font-weight:normal;font-stretch:normal;font-size:35px;line-height:125%;font-family:'Fira Sans';-inkscape-font-specification:'Fira Sans, Normal';text-align:center;letter-spacing:10px;word-spacing:-0.01px;writing-mode:lr-tb;text-anchor:middle;fill:#000000;fill-opacity:1;stroke:none;stroke-width:1px;stroke-linecap:butt;stroke-linejoin:miter;stroke-opacity:1"
     x="120.98936"
     y="-199.76004"
     id="text4156"
     sodipodi:linespacing="125%"><tspan
       sodipodi:role="line"
       id="tspan4158"
       x="120.98936"
       y="-199.76004" /></text>
  <g
     inkscape:groupmode="layer"
     id="layer1"
     inkscape:label="Layer 1"
     style="display:inline"
     transform="translate(-430.07448,-486.16482)" />
  <text
     xml:space="preserve"
     style="font-style:normal;font-variant:normal;font-weight:normal;font-stretch:normal;font-size:20px;line-height:125%;font-family:Garamond;-inkscape-font-specification:Garamond;text-align:center;letter-spacing:10px;word-spacing:-0.01px;writing-mode:lr-tb;text-anchor:middle;fill:#000000;fill-opacity:1;stroke:none;stroke-width:1px;stroke-linecap:butt;stroke-linejoin:miter;stroke-opacity:1"
     x="-120.15108"
     y="-259.01126"
     id="text4429"
     sodipodi:linespacing="125%"><tspan
       sodipodi:role="line"
       id="tspan4431"
       x="-120.15108"
       y="-259.01126" /></text>
  <path
     style="fill:none;fill-rule:evenodd;stroke:none;stroke-width:1px;stroke-linecap:butt;stroke-linejoin:miter;stroke-opacity:1"
     d="m -190.11281,127.70661 c 148.58824,170.56496 313.74219,210.03162 510.07102,-1.2816 l -2.56317,-1.28157"
     id="path4467"
     inkscape:connector-curvature="0"
     sodipodi:nodetypes="ccc" />
  <g
     id="g5075"
     transform="matrix(0.33885811,0,0,0.325,-110.1583,-43.887138)">
    <g
       transform="matrix(1.4663181,0,0,1.4424059,-300.46299,-287.0309)"
       id="g5019">
      <path
         style="opacity:1;fill:#e3a478;fill-opacity:1;fill-rule:nonzero;stroke:none;stroke-width:1;stroke-miterlimit:4;stroke-dasharray:none;stroke-opacity:1"
         d="m 511.90251,292.61406 -24.09375,13.73047 -0.002,0.44922 -23.25977,-13.75586 -23.94531,13.49023 -0.28906,27.48242 23.65625,13.99219 23.94531,-13.49219 0.004,-0.28125 23.67187,13.84766 24.09375,-13.73242 0.15625,-27.73047 -23.9375,-14 z"
         id="path4742"
         inkscape:connector-curvature="0" />
      <g
         id="g4888"
         style="stroke:#e3a478;stroke-opacity:1"
         transform="translate(123.17595,133.00859)">
        <path
           sodipodi:nodetypes="ccccsscccccccsc"
           id="path4783"
           d="m 417.15881,177.1266 c -4.33563,2.9e-4 -7.85003,4.44807 -7.8493,9.93397 0.001,5.48408 3.51511,9.92901 7.8493,9.9293 4.33421,-2.7e-4 7.84803,-4.4452 7.84933,-9.9293 6.4e-4,-4.80113 -2.69107,-8.80712 -6.26934,-9.7326 -0.006,-0.002 -0.0118,-0.003 -0.0177,-0.005 -0.5049,-0.12905 -1.02736,-0.1968 -1.56233,-0.19683 z m 0,1.27998 c 0.47818,-6e-5 0.94489,0.062 1.39538,0.18013 3.10794,0.81504 5.44343,4.29961 5.44218,8.47386 -6e-4,4.77746 -3.06182,8.64982 -6.83756,8.64932 -3.77574,5e-4 -6.83696,-3.87186 -6.83756,-8.64932 -2.6e-4,-1.24185 0.20624,-2.42266 0.57834,-3.4903 1.05993,-3.04118 3.4635,-5.16406 6.25922,-5.16369 z"
           style="opacity:1;fill:#e3a478;fill-opacity:0.2485549;fill-rule:nonzero;stroke:#e3a478;stroke-width:2.40938091;stroke-miterlimit:4;stroke-dasharray:none;stroke-opacity:1"
           inkscape:connector-curvature="0" />
      </g>
      <path
         id="path4797"
         d="m 435.66661,309.22897 a 7.8497113,9.9322873 0 0 0 -7.84931,9.93398 7.8497113,9.9322873 0 0 0 7.84931,9.9293 7.8497113,9.9322873 0 0 0 7.84933,-9.9293 7.8497113,9.9322873 0 0 0 -7.84933,-9.93398 z m 0,1.27999 a 6.8368452,8.6507018 0 0 1 6.83756,8.65399 6.8368452,8.6507018 0 0 1 -6.83756,8.64931 6.8368452,8.6507018 0 0 1 -6.83756,-8.64931 6.8368452,8.6507018 0 0 1 6.83756,-8.65399 z"
         style="opacity:1;fill:#e3a478;fill-opacity:0.2485549;fill-rule:nonzero;stroke:#e2a174;stroke-width:2.40938091;stroke-miterlimit:4;stroke-dasharray:none;stroke-opacity:0.98039216"
         inkscape:connector-curvature="0" />
    </g>
  </g>
</svg>
